<?xml version="1.0" encoding="utf-8"?>
<!-- Generator: Adobe Illustrator 25.2.0, SVG Export Plug-In . SVG Version: 6.00 Build 0)  -->
<svg version="1.1" id="wave" xmlns="http://www.w3.org/2000/svg" xmlns:xlink="http://www.w3.org/1999/xlink" x="0px" y="0px"
	 viewBox="0 0 1440 290" style="enable-background:new 0 0 1440 290;" xml:space="preserve">
<style type="text/css">
	.st0{fill:url(#SVGID_1_);}
	.st1{fill:url(#SVGID_2_);}
	.st2{fill:url(#SVGID_3_);}
	.st3{fill:url(#SVGID_4_);}
</style>
<g>
	
		<linearGradient id="SVGID_1_" gradientUnits="userSpaceOnUse" x1="319.4596" y1="543.6437" x2="319.4596" y2="559.0676" gradientTransform="matrix(18315.8301 -8987.8027 -838.0443 -1707.8127 -5397484 3811240.75)">
		<stop  offset="0" style="stop-color:#000000"/>
		<stop  offset="1" style="stop-color:#000000"/>
	</linearGradient>
	<path class="st0" d="M-30606.1-6049.5c-7.5-103.6,48.6-201.4,141.9-247.2l0,0c153.8-75.5,464.2-227.8,756.4-407.1
		c292.7-182.5,576.6-389.1,939.1-424.9c364.3-36.7,819.7,106.3,1153.5,12c336.8-92.7,561.5-419.8,867.9-570.2
		c308.1-151.2,704.3-128.8,1024.9-250.2c323.5-119.9,574.8-392.7,796.3-716c221.5-327.8,419.5-709.1,739.2-832.4
		c321.4-124.1,776.8,18.9,1067.8-162.8c293.9-180.1,432.8-682,682.1-948.7c249.9-269.9,619.4-301.7,996.2-308.6
		c379.7-5.3,775.9,17.1,1139.3-16.9c366.4-32.5,703.4-130.6,1039.4-220.6c337.7-90.9,674.7-189,882.1-541.3
		c209-353.1,288.8-975.5,481.9-1356.7c193.7-384.4,504.1-536.8,867.6-570.8c366.4-32.5,789.2,44.2,1225.1,157.8
		c435.9,109.2,891.2,252.1,1210.9,128.9c321.4-124.1,519.5-505.4,696.3-919.7c180.4-411.6,345.9-859.2,667.6-978.2
		c322.3-122.3,804.3,75,1153.5,12c351-63.8,575.7-390.9,825-657.6c249.9-269.9,533.7-476.5,924.9-453.9
		c394.8,25.4,903.3,276.8,1296.4,303.1c381.5,21.1,660-172.9,799.5-280.4c8.1-6.2,15.7-12.9,23-20l1043.2-1025.7
		c41.4-40.7,95.4-66,153.1-71.8l1711.8-172.9c106-10.7,207.5,45.7,254.4,141.3L8911-8046C6354.6-5118.2,7032.6-4835.4,6902.2-4399.1
		C6432.7-2828.1,1415.8,7868,323.4,9862.1c-2029.6,3704.7-10156.5,345.5-10337,434c-308.1,151.2-5739.7-150.3-6046,0
		c-38.3,18.8-10167.1-9191.1-10205.2-9172.4c-266.2,130.6-3302.2-3440.3-3885.5-5692.5c-8.6-33.1-23.7-64.2-44.5-91.4l-296.7-386.8
		c-30.3-39.5-48.4-87-52-136.7L-30606.1-6049.5z"/>
	
		<linearGradient id="SVGID_2_" gradientUnits="userSpaceOnUse" x1="319.4596" y1="543.6437" x2="319.4596" y2="559.0676" gradientTransform="matrix(18315.8301 -8987.8027 -838.0443 -1707.8127 -5397484 3811240.75)">
		<stop  offset="0" style="stop-color:#000000"/>
		<stop  offset="1" style="stop-color:#000000"/>
	</linearGradient>
	<path class="st1" d="M-30606.1-6049.5c-7.5-103.6,48.6-201.4,141.9-247.2l0,0c153.8-75.5,464.2-227.8,756.4-407.1
		c292.7-182.5,576.6-389.1,939.1-424.9c364.3-36.7,819.7,106.3,1153.5,12c336.8-92.7,561.5-419.8,867.9-570.2
		c308.1-151.2,704.3-128.8,1024.9-250.2c323.5-119.9,574.8-392.7,796.3-716c221.5-327.8,419.5-709.1,739.2-832.4
		c321.4-124.1,776.8,18.9,1067.8-162.8c293.9-180.1,432.8-682,682.1-948.7c249.9-269.9,619.4-301.7,996.2-308.6
		c379.7-5.3,775.9,17.1,1139.3-16.9c366.4-32.5,703.4-130.6,1039.4-220.6c337.7-90.9,674.7-189,882.1-541.3
		c209-353.1,288.8-975.5,481.9-1356.7c193.7-384.4,504.1-536.8,867.6-570.8c366.4-32.5,789.2,44.2,1225.1,157.8
		c435.9,109.2,891.2,252.1,1210.9,128.9c321.4-124.1,519.5-505.4,696.3-919.7c180.4-411.6,345.9-859.2,667.6-978.2
		c322.3-122.3,804.3,75,1153.5,12c351-63.8,575.7-390.9,825-657.6c249.9-269.9,533.7-476.5,924.9-453.9
		c394.8,25.4,903.3,276.8,1296.4,303.1c381.5,21.1,660-172.9,799.5-280.4c8.1-6.2,15.7-12.9,23-20l1043.2-1025.7
		c41.4-40.7,95.4-66,153.1-71.8l1711.8-172.9c106-10.7,207.5,45.7,254.4,141.3L8911-8046C6354.6-5118.2,7032.6-4835.4,6902.2-4399.1
		C6432.7-2828.1,1415.8,7868,323.4,9862.1c-2029.6,3704.7-10156.5,345.5-10337,434c-308.1,151.2-5739.7-150.3-6046,0
		c-38.3,18.8-10167.1-9191.1-10205.2-9172.4c-266.2,130.6-3302.2-3440.3-3885.5-5692.5c-8.6-33.1-23.7-64.2-44.5-91.4l-296.7-386.8
		c-30.3-39.5-48.4-87-52-136.7L-30606.1-6049.5z"/>
	
		<linearGradient id="SVGID_3_" gradientUnits="userSpaceOnUse" x1="319.4596" y1="543.6437" x2="319.4596" y2="559.0676" gradientTransform="matrix(18315.8301 -8987.8027 -838.0443 -1707.8127 -5397484 3811240.75)">
		<stop  offset="0" style="stop-color:#000000"/>
		<stop  offset="1" style="stop-color:#000000"/>
	</linearGradient>
	<path class="st2" d="M-30606.1-6049.5c-7.5-103.6,48.6-201.4,141.9-247.2l0,0c153.8-75.5,464.2-227.8,756.4-407.1
		c292.7-182.5,576.6-389.1,939.1-424.9c364.3-36.7,819.7,106.3,1153.5,12c336.8-92.7,561.5-419.8,867.9-570.2
		c308.1-151.2,704.3-128.8,1024.9-250.2c323.5-119.9,574.8-392.7,796.3-716c221.5-327.8,419.5-709.1,739.2-832.4
		c321.4-124.1,776.8,18.9,1067.8-162.8c293.9-180.1,432.8-682,682.1-948.7c249.9-269.9,619.4-301.7,996.2-308.6
		c379.7-5.3,775.9,17.1,1139.3-16.9c366.4-32.5,703.4-130.6,1039.4-220.6c337.7-90.9,674.7-189,882.1-541.3
		c209-353.1,288.8-975.5,481.9-1356.7c193.7-384.4,504.1-536.8,867.6-570.8c366.4-32.5,789.2,44.2,1225.1,157.8
		c435.9,109.2,891.2,252.1,1210.9,128.9c321.4-124.1,519.5-505.4,696.3-919.7c180.4-411.6,345.9-859.2,667.6-978.2
		c322.3-122.3,804.3,75,1153.5,12c351-63.8,575.7-390.9,825-657.6c249.9-269.9,533.7-476.5,924.9-453.9
		c394.8,25.4,903.3,276.8,1296.4,303.1c381.5,21.1,660-172.9,799.5-280.4c8.1-6.2,15.7-12.9,23-20l1043.2-1025.7
		c41.4-40.7,95.4-66,153.1-71.8l1711.8-172.9c106-10.7,207.5,45.7,254.4,141.3L8911-8046C6354.6-5118.2,7032.6-4835.4,6902.2-4399.1
		C6432.7-2828.1,1415.8,7868,323.4,9862.1c-2029.6,3704.7-10156.5,345.5-10337,434c-308.1,151.2-5739.7-150.3-6046,0
		c-38.3,18.8-10167.1-9191.1-10205.2-9172.4c-266.2,130.6-3302.2-3440.3-3885.5-5692.5c-8.6-33.1-23.7-64.2-44.5-91.4l-296.7-386.8
		c-30.3-39.5-48.4-87-52-136.7L-30606.1-6049.5z"/>
	
		<linearGradient id="SVGID_4_" gradientUnits="userSpaceOnUse" x1="319.4596" y1="543.6437" x2="319.4596" y2="559.0676" gradientTransform="matrix(18315.8301 -8987.8027 -838.0443 -1707.8127 -5397484 3811240.75)">
		<stop  offset="0" style="stop-color:#000000"/>
		<stop  offset="1" style="stop-color:#000000"/>
	</linearGradient>
	<path class="st3" d="M-30606.1-6049.5c-7.5-103.6,48.6-201.4,141.9-247.2l0,0c153.8-75.5,464.2-227.8,756.4-407.1
		c292.7-182.5,576.6-389.1,939.1-424.9c364.3-36.7,819.7,106.3,1153.5,12c336.8-92.7,561.5-419.8,867.9-570.2
		c308.1-151.2,704.3-128.8,1024.9-250.2c323.5-119.9,574.8-392.7,796.3-716c221.5-327.8,419.5-709.1,739.2-832.4
		c321.4-124.1,776.8,18.9,1067.8-162.8c293.9-180.1,432.8-682,682.1-948.7c249.9-269.9,619.4-301.7,996.2-308.6
		c379.7-5.3,775.9,17.1,1139.3-16.9c366.4-32.5,703.4-130.6,1039.4-220.6c337.7-90.9,674.7-189,882.1-541.3
		c209-353.1,288.8-975.5,481.9-1356.7c193.7-384.4,504.1-536.8,867.6-570.8c366.4-32.5,789.2,44.2,1225.1,157.8
		c435.9,109.2,891.2,252.1,1210.9,128.9c321.4-124.1,519.5-505.4,696.3-919.7c180.4-411.6,345.9-859.2,667.6-978.2
		c322.3-122.3,804.3,75,1153.5,12c351-63.8,575.7-390.9,825-657.6c249.9-269.9,533.7-476.5,924.9-453.9
		c394.8,25.4,903.3,276.8,1296.4,303.1c381.5,21.1,660-172.9,799.5-280.4c8.1-6.2,15.7-12.9,23-20l1043.2-1025.7
		c41.4-40.7,95.4-66,153.1-71.8l1711.8-172.9c106-10.7,207.5,45.7,254.4,141.3L8911-8046C6354.6-5118.2,7032.6-4835.4,6902.2-4399.1
		C6432.7-2828.1,1415.8,7868,323.4,9862.1c-2029.6,3704.7-10156.5,345.5-10337,434c-308.1,151.2-5739.7-150.3-6046,0
		c-38.3,18.8-10167.1-9191.1-10205.2-9172.4c-266.2,130.6-3302.2-3440.3-3885.5-5692.5c-8.6-33.1-23.7-64.2-44.5-91.4l-296.7-386.8
		c-30.3-39.5-48.4-87-52-136.7L-30606.1-6049.5z"/>
</g>
</svg>
