<?xml version="1.0" encoding="utf-8"?>
<!-- Generator: Adobe Illustrator 25.2.0, SVG Export Plug-In . SVG Version: 6.00 Build 0)  -->
<svg version="1.1" id="wave" xmlns="http://www.w3.org/2000/svg" xmlns:xlink="http://www.w3.org/1999/xlink" x="0px" y="0px"
	 viewBox="0 0 1440 100" style="enable-background:new 0 0 1440 100;" xml:space="preserve">
<style type="text/css">
	.st0{fill:url(#SVGID_1_);}
</style>
<linearGradient id="SVGID_1_" gradientUnits="userSpaceOnUse" x1="320.2702" y1="407.2095" x2="320.2702" y2="448.0631" gradientTransform="matrix(-5724.9849 2033.3925 48.5823 136.7827 1812370.375 -710378.4375)">
	<stop  offset="0" style="stop-color:#000000"/>
	<stop  offset="1" style="stop-color:#000000"/>
</linearGradient>
<path class="st0" d="M4167.3,866.6l-45.7-2.6c-45.5-2.1-137.2-8.2-219.1,13.3c-82.2,20.7-154.6,68.9-231.7,103.9
	c-76.8,35.8-158.4,58.3-239.4,82.3c-81,23.9-162.6,46.5-237.7,87.2c-75.3,40.1-144.6,97-226.7,118.1c-82.1,21.1-176.8,6.4-259.7,25
	c-82.7,19.2-154.1,70.4-232.6,101.5c-78.5,31.1-165.1,39.3-241.9,75.1c-77.1,35-144.4,97.6-221.6,132.5
	c-76.8,35.8-163.5,44-242.8,72.7c-79.7,27.8-152.1,76.1-234.3,96.7c-81.9,21.5-173.6,15.4-253.8,41.8
	c-80.4,25.8-149.7,82.7-226.7,118.1c-77,35.4-161.6,49.3-241.9,75.1c-80.2,26.4-156.6,63.2-237.7,87.2s-167.7,32.1-246.2,63.3
	c-78.5,31.1-149.9,82.3-224.2,125.2c-74.6,42.1-152.1,76.1-231.7,103.9c-79.4,28.7-160.9,51.2-239.4,82.3s-155,67.9-233.5,99
	c-78.5,31.1-160,53.6-240.2,80c-80.4,25.8-159.9,54-239.4,82.3c-79.5,28.2-159,56.5-244.5,68c-85.3,12.1-177,5.9-222.5,3.9l-6.3-0.4
	c-24.4-1.4-43.3-13.2-49.6-30.9l-1382.7,32l-1557.3-1782.4C-5077.8-460.3-971.7-7042.1,3974-1657.5l707.9,1955.2L4167.3,866.6z"/>
</svg>
