<?xml version="1.0" encoding="utf-8"?>
<!-- Generator: Adobe Illustrator 24.1.3, SVG Export Plug-In . SVG Version: 6.00 Build 0)  -->
<svg version="1.1" id="Layer_1" xmlns="http://www.w3.org/2000/svg" xmlns:xlink="http://www.w3.org/1999/xlink" x="0px" y="0px"
	 viewBox="0 0 1366 768" style="enable-background:new 0 0 1366 768;" xml:space="preserve">
<style type="text/css">
	.st0{fill:#57B289;}
	.st1{fill:#473D3E;stroke:#3A2929;stroke-width:2;stroke-miterlimit:10;}
	.st2{fill:#1E875C;}
	.st3{fill:none;stroke:#3A2929;stroke-width:8;stroke-miterlimit:10;}
	.st4{fill:#239E6F;}
	.st5{fill:none;stroke:#3A2929;stroke-width:5;stroke-miterlimit:10;}
	.st6{fill:none;stroke:#3A2929;stroke-width:4;stroke-miterlimit:10;}
	.st7{fill:#3B8969;}
	.st8{fill:#49A57F;}
	.st9{fill:none;stroke:#3A2929;stroke-width:3;stroke-miterlimit:10;}
	.st10{fill:#57AA88;}
	.st11{fill:#1E724E;}
	.st12{fill:#64BF9A;}
	.st13{fill:#5EAA89;}
	.st14{fill:#492A2A;stroke:#3A2929;stroke-width:0.75;stroke-miterlimit:10;}
	.st15{fill:#41996F;}
	.st16{fill:#3A8965;}
	.st17{fill:#69AF8F;}
	.st18{fill:#61AF8D;}
	.st19{fill:#36996E;}
	.st20{fill:#245B4E;}
	.st21{fill:#245142;}
</style>
<g>
	<g>
		<path class="st0" d="M177,127.1c1.2,10.3-2.7,19.2-20.1,21.3c-15.6,1.9-23.3-5.6-24.6-15.9s7.1-25.6,19.4-27.1
			C164,104,175.7,116.9,177,127.1z"/>
		<line class="st1" x1="158" y1="133.6" x2="158" y2="172.6"/>
		<path class="st2" d="M181,131.3c0,9.6-4.9,17.3-22.5,17.3c-15.8,0-22.5-7.7-22.5-17.3s10.1-22.7,22.5-22.7S181,121.7,181,131.3z"
			/>
	</g>
	<g>
		<line class="st3" x1="97" y1="133.6" x2="97" y2="172.6"/>
		<path class="st4" d="M122,125.2c0,12.9-5.5,23.4-25,23.4c-17.5,0-25-10.5-25-23.4s11.2-30.6,25-30.6S122,112.3,122,125.2z"/>
	</g>
	<g>
		<path class="st0" d="M136,127.1c1.2,10.3-2.7,19.2-20.1,21.3c-15.6,1.9-23.3-5.6-24.6-15.9c-1.2-10.3,7.1-25.6,19.4-27.1
			S134.7,116.9,136,127.1z"/>
		<line class="st1" x1="117" y1="133.6" x2="117" y2="172.6"/>
		<path class="st2" d="M140,131.3c0,9.6-4.9,17.3-22.5,17.3c-15.8,0-22.5-7.7-22.5-17.3s10.1-22.7,22.5-22.7S140,121.7,140,131.3z"
			/>
	</g>
	<g>
		<line class="st3" x1="136.2" y1="142.1" x2="136.2" y2="172.6"/>
		<path class="st4" d="M157,135.5c0,10.1-4.6,18.3-20.8,18.3c-14.5,0-20.8-8.2-20.8-18.3s9.3-24,20.8-24S157,125.4,157,135.5z"/>
	</g>
	<g>
		<line class="st5" x1="187" y1="133.6" x2="187" y2="172.6"/>
		<path class="st4" d="M212,125.2c0,12.9-5.5,23.4-25,23.4c-17.5,0-25-10.5-25-23.4s11.2-30.6,25-30.6S212,112.3,212,125.2z"/>
	</g>
	<g>
		<line class="st6" x1="212" y1="133.6" x2="212" y2="172.6"/>
		<path class="st7" d="M237,125.2c0,12.9-5.5,23.4-25,23.4c-17.5,0-25-10.5-25-23.4s11.2-30.6,25-30.6S237,112.3,237,125.2z"/>
	</g>
	<g>
		<path class="st0" d="M252,127.1c1.2,10.3-2.7,19.2-20.1,21.3c-15.6,1.9-23.3-5.6-24.6-15.9s7.1-25.6,19.4-27.1
			C239,104,250.7,116.9,252,127.1z"/>
		<line class="st1" x1="233" y1="133.6" x2="233" y2="172.6"/>
		<path class="st2" d="M256,131.3c0,9.6-4.9,17.3-22.5,17.3c-15.8,0-22.5-7.7-22.5-17.3s10.1-22.7,22.5-22.7S256,121.7,256,131.3z"
			/>
	</g>
	<g>
		<circle class="st8" cx="277" cy="110.6" r="30"/>
		<g>
			<line class="st1" x1="277" y1="131.6" x2="277" y2="170.6"/>
			<path class="st0" d="M321,127.1c1.2,10.3-2.7,19.2-20.1,21.3c-15.6,1.9-23.3-5.6-24.6-15.9s7.1-25.6,19.4-27.1
				C308,104,319.7,116.9,321,127.1z"/>
			<line class="st1" x1="302" y1="133.6" x2="302" y2="172.6"/>
			<path class="st2" d="M325,131.3c0,9.6-5,17.3-22.5,17.3c-15.8,0-22.5-7.7-22.5-17.3s10.1-22.7,22.5-22.7S325,121.7,325,131.3z"/>
		</g>
	</g>
	<g>
		<line class="st9" x1="252.4" y1="149.2" x2="252.4" y2="172.6"/>
		<path class="st4" d="M267.7,144.2c0,7.7-3.4,14-15.4,14c-10.8,0-15.4-6.3-15.4-14c0-7.7,6.9-18.3,15.4-18.3
			C260.8,125.9,267.7,136.5,267.7,144.2z"/>
		<path class="st8" d="M265.3,148.1c0,3.9-2.1,7-9.7,7c-6.8,0-9.7-3.1-9.7-7c0-3.9,4.3-9.2,9.7-9.2S265.3,144.2,265.3,148.1z"/>
	</g>
</g>
<g>
	<g>
		<line class="st3" x1="406.2" y1="125.8" x2="406.2" y2="172.6"/>
		<path class="st10" d="M439,115.8c0,15.5-7.2,28-32.8,28c-23,0-32.8-12.5-32.8-28S388.1,79,406.2,79S439,100.3,439,115.8z"/>
	</g>
	<line class="st1" x1="549.6" y1="132.5" x2="549.6" y2="171.1"/>
	<circle class="st8" cx="549" cy="126" r="30"/>
	<g>
		<path class="st0" d="M442.8,127.1c1.2,10.3-2.7,19.2-20.1,21.3c-15.6,1.9-23.3-5.6-24.6-15.9c-1.2-10.3,7.1-25.6,19.4-27.1
			S441.6,116.9,442.8,127.1z"/>
		<line class="st1" x1="423.9" y1="133.6" x2="423.9" y2="172.6"/>
		<path class="st2" d="M446.9,131.3c0,9.6-5,17.3-22.5,17.3c-15.8,0-22.5-7.7-22.5-17.3s10.1-22.7,22.5-22.7
			C436.8,108.6,446.9,121.7,446.9,131.3z"/>
	</g>
	<g>
		<path class="st0" d="M401.8,113.4c1.2,13.4-2.7,25-20.1,27.7c-15.6,2.5-23.3-7.3-24.6-20.7c-1.2-13.4,7.1-33.3,19.4-35.3
			C388.9,83.2,400.6,100,401.8,113.4z"/>
		<line class="st1" x1="382.9" y1="121.8" x2="382.9" y2="172.6"/>
		<path class="st2" d="M405.9,118.8c0,12.5-5,22.5-22.5,22.5c-15.8,0-22.5-10.1-22.5-22.5s10.1-29.6,22.5-29.6
			C395.8,89.2,405.9,106.3,405.9,118.8z"/>
	</g>
	<g>
		<line class="st3" x1="362.9" y1="138.8" x2="362.9" y2="172.6"/>
		<path class="st4" d="M387.9,131.5c0,11.2-5.5,20.2-25,20.2c-17.5,0-25-9.1-25-20.2s11.2-26.5,25-26.5
			C376.7,105,387.9,120.4,387.9,131.5z"/>
	</g>
	<g>
		<line class="st5" x1="452.9" y1="133.6" x2="452.9" y2="172.6"/>
		<path class="st4" d="M477.9,125.2c0,12.9-5.5,23.4-25,23.4c-17.5,0-25-10.5-25-23.4s11.2-30.6,25-30.6
			C466.7,94.6,477.9,112.3,477.9,125.2z"/>
	</g>
	<g>
		<line class="st6" x1="478.5" y1="127.3" x2="478.5" y2="172.6"/>
		<path class="st7" d="M499,117.6c0,15-4.5,27.1-20.5,27.1c-14.4,0-20.5-12.1-20.5-27.1S467.2,82,478.5,82S499,102.6,499,117.6z"/>
	</g>
	<g>
		<path class="st0" d="M522.8,127.1c1.2,10.3-2.7,19.2-20.1,21.3c-15.6,1.9-23.3-5.6-24.6-15.9c-1.2-10.3,7.1-25.6,19.4-27.1
			S521.6,116.9,522.8,127.1z"/>
		<line class="st1" x1="503.9" y1="133.6" x2="503.9" y2="172.6"/>
		<path class="st2" d="M526.9,131.3c0,9.6-5,17.3-22.5,17.3c-15.8,0-22.5-7.7-22.5-17.3s10.1-22.7,22.5-22.7
			C516.8,108.6,526.9,121.7,526.9,131.3z"/>
	</g>
	<path class="st0" d="M587.1,126.9c1.2,10.2-2.4,19-18.3,21.2c-14.3,2-21.5-5.4-22.6-15.6c-1.2-10.2,6.3-25.4,17.7-26.9
		S585.9,116.7,587.1,126.9z"/>
	<line class="st1" x1="569.7" y1="133.3" x2="569.9" y2="172"/>
	<path class="st2" d="M590.8,130.9c0,9.5-4.5,17.2-20.6,17.3c-14.5,0.1-20.7-7.6-20.7-17s9.1-22.6,20.5-22.6
		C581.5,108.5,590.8,121.4,590.8,130.9z"/>
	<g>
		<line class="st9" x1="530.2" y1="149.2" x2="530.2" y2="172.6"/>
		<path class="st4" d="M545.6,144.2c0,7.7-3.4,14-15.4,14c-10.8,0-15.4-6.3-15.4-14c0-7.7,6.9-18.3,15.4-18.3
			S545.6,136.5,545.6,144.2z"/>
		<path class="st8" d="M543.2,148.1c0,3.9-2.1,7-9.7,7c-6.8,0-9.7-3.1-9.7-7c0-3.9,4.3-9.2,9.7-9.2
			C538.9,138.9,543.2,144.2,543.2,148.1z"/>
	</g>
</g>
<g>
	<g>
		<path class="st0" d="M183,232.3c1.2,10.3-2.7,19.2-20.1,21.3c-15.6,1.9-23.3-5.6-24.6-15.9c-1.2-10.3,7.1-25.6,19.4-27.1
			C170.1,209.2,181.8,222.1,183,232.3z"/>
		<line class="st1" x1="164.1" y1="238.8" x2="164.1" y2="277.8"/>
		<path class="st11" d="M187.1,236.5c0,9.6-4.9,17.3-22.5,17.3c-15.8,0-22.5-7.7-22.5-17.3s10.1-22.7,22.5-22.7
			S187.1,226.9,187.1,236.5z"/>
	</g>
	<g>
		<line class="st3" x1="103.1" y1="238.8" x2="103.1" y2="277.8"/>
		<path class="st12" d="M128.1,230.4c0,12.9-5.5,23.4-25,23.4c-17.5,0-25-10.5-25-23.4s11.2-30.6,25-30.6S128.1,217.5,128.1,230.4z"
			/>
	</g>
	<g>
		<line class="st9" x1="209" y1="238.8" x2="209" y2="277.8"/>
		<path class="st7" d="M234,230.4c0,12.9-5.5,23.4-25,23.4c-17.5,0-25-10.5-25-23.4s11.2-30.6,25-30.6
			C222.8,199.8,234,217.5,234,230.4z"/>
		<path class="st13" d="M318,237.2c0,12.9-7.9,23.4-35.8,23.4c-25,0-35.8-10.5-35.8-23.4s16-30.6,35.8-30.6S318,224.3,318,237.2z"/>
	</g>
	<g>
		<line class="st14" x1="186.4" y1="252.8" x2="185.1" y2="277.8"/>
		<path class="st8" d="M213.5,247.4c0,8.3-6.1,15-27.8,15c-19.4,0-27.8-6.7-27.8-15s12.4-19.6,27.8-19.6S213.5,239.1,213.5,247.4z"
			/>
	</g>
	<g>
		<path class="st0" d="M258,232.3c1.2,10.3-2.7,19.2-20.1,21.3c-15.6,1.9-23.3-5.6-24.6-15.9c-1.2-10.3,7.1-25.6,19.4-27.1
			C245.1,209.2,256.8,222.1,258,232.3z"/>
		<line class="st1" x1="239.1" y1="238.8" x2="239.1" y2="277.8"/>
		<path class="st2" d="M262.1,236.5c0,9.6-5,17.3-22.5,17.3c-15.8,0-22.5-7.7-22.5-17.3s10.1-22.7,22.5-22.7
			S262.1,226.9,262.1,236.5z"/>
	</g>
	<g>
		<line class="st1" x1="283" y1="261" x2="283.1" y2="275.8"/>
		<path class="st15" d="M333.5,234.3c1.1,8.8-3.7,16.5-23.5,18.9c-17.8,2.1-26.3-4-27.3-12.8s8.9-22.2,22.9-23.9
			S332.5,225.6,333.5,234.3z"/>
		<line class="st1" x1="308.1" y1="238.8" x2="308.1" y2="277.8"/>
		<path class="st16" d="M331,239c0,8.2-4.9,14.8-22.5,14.8c-15.7,0-22.5-6.6-22.5-14.8c0-8.2,10.1-19.4,22.5-19.4S331,230.8,331,239
			z"/>
	</g>
	<g>
		<line class="st9" x1="258.4" y1="254.4" x2="258.4" y2="277.8"/>
		<path class="st4" d="M273.8,249.4c0,7.7-3.4,14-15.4,14c-10.8,0-15.4-6.3-15.4-14c0-7.7,6.9-18.3,15.4-18.3
			C266.9,231.1,273.8,241.7,273.8,249.4z"/>
		<path class="st17" d="M271.4,253.3c0,3.9-2.1,7-9.7,7c-6.8,0-9.7-3.1-9.7-7c0-3.9,4.3-9.2,9.7-9.2
			C267.1,244.1,271.4,249.4,271.4,253.3z"/>
	</g>
	<g>
		<line class="st6" x1="217.5" y1="253.7" x2="217.5" y2="277.8"/>
		<path class="st4" d="M232.1,248.5c0,8-3.2,14.4-14.5,14.4c-10.2,0-14.5-6.5-14.5-14.4s6.5-18.9,14.5-18.9
			C225.5,229.5,232.1,240.5,232.1,248.5z"/>
	</g>
	<g>
		<line class="st9" x1="124" y1="243.4" x2="124" y2="277.8"/>
		<path class="st8" d="M145,236c0,11.4-4.6,20.6-21,20.6c-14.7,0-21-9.2-21-20.6c0-11.4,9.4-27,21-27S145,224.6,145,236z"/>
	</g>
</g>
<g>
	<g>
		<path class="st0" d="M448.9,232.3c1.2,10.3-2.7,19.2-20.1,21.3c-15.6,1.9-23.3-5.6-24.6-15.9c-1.2-10.3,7.1-25.6,19.4-27.1
			C435.9,209.2,447.7,222.1,448.9,232.3z"/>
		<line class="st1" x1="429.9" y1="238.8" x2="429.9" y2="277.8"/>
		<path class="st18" d="M452.9,236.5c0,9.6-4.9,17.3-22.5,17.3c-15.8,0-22.5-7.7-22.5-17.3s10.1-22.7,22.5-22.7
			C442.8,213.8,452.9,226.9,452.9,236.5z"/>
	</g>
	<g>
		<line class="st3" x1="368.9" y1="238.8" x2="368.9" y2="277.8"/>
		<path class="st4" d="M393.9,230.4c0,12.9-5.5,23.4-25,23.4c-17.5,0-25-10.5-25-23.4s11.2-30.6,25-30.6
			C382.7,199.8,393.9,217.5,393.9,230.4z"/>
	</g>
	<g>
		<path class="st0" d="M407.9,232.3c1.2,10.3-2.7,19.2-20.1,21.3c-15.6,1.9-23.3-5.6-24.6-15.9c-1.2-10.3,7.1-25.6,19.4-27.1
			C394.9,209.2,406.7,222.1,407.9,232.3z"/>
		<line class="st1" x1="388.9" y1="238.8" x2="388.9" y2="277.8"/>
		<path class="st19" d="M411.9,236.5c0,9.6-4.9,17.3-22.5,17.3c-15.8,0-22.5-7.7-22.5-17.3s10.1-22.7,22.5-22.7
			C401.8,213.8,411.9,226.9,411.9,236.5z"/>
	</g>
	<g>
		<line class="st5" x1="458.9" y1="238.8" x2="458.9" y2="277.8"/>
		<path class="st4" d="M483.9,230.4c0,12.9-5.5,23.4-25,23.4c-17.5,0-25-10.5-25-23.4s11.2-30.6,25-30.6
			C472.7,199.8,483.9,217.5,483.9,230.4z"/>
	</g>
	<g>
		<line class="st9" x1="483.9" y1="238.8" x2="483.9" y2="277.8"/>
		<path class="st7" d="M508.9,230.4c0,12.9-5.5,23.4-25,23.4c-17.5,0-25-10.5-25-23.4s11.2-30.6,25-30.6
			C497.7,199.8,508.9,217.5,508.9,230.4z"/>
	</g>
	<g>
		<path class="st0" d="M528.9,232.3c1.2,10.3-2.7,19.2-20.1,21.3c-15.6,1.9-23.3-5.6-24.6-15.9c-1.2-10.3,7.1-25.6,19.4-27.1
			C515.9,209.2,527.7,222.1,528.9,232.3z"/>
		<line class="st1" x1="509.9" y1="238.8" x2="509.9" y2="277.8"/>
		<path class="st2" d="M532.9,236.5c0,9.6-5,17.3-22.5,17.3c-15.8,0-22.5-7.7-22.5-17.3s10.1-22.7,22.5-22.7
			C522.8,213.8,532.9,226.9,532.9,236.5z"/>
	</g>
	<line class="st1" x1="573.9" y1="238.8" x2="573.9" y2="277.8"/>
	<path class="st2" d="M596.9,246.5c0,9.6-5,17.3-22.5,17.3c-15.8,0-22.5-7.7-22.5-17.3c0-9.6,10.1-22.7,22.5-22.7
		C586.8,223.8,596.9,236.9,596.9,246.5z"/>
	<g>
		<line class="st9" x1="536.3" y1="254.4" x2="536.3" y2="277.8"/>
		<path class="st4" d="M551.6,249.4c0,7.7-3.4,14-15.4,14c-10.8,0-15.4-6.3-15.4-14c0-7.7,6.9-18.3,15.4-18.3
			C544.8,231.1,551.6,241.7,551.6,249.4z"/>
		<path class="st8" d="M549.3,253.3c0,3.9-2.1,7-9.7,7c-6.8,0-9.7-3.1-9.7-7c0-3.9,4.3-9.2,9.7-9.2
			C544.9,244.1,549.3,249.4,549.3,253.3z"/>
	</g>
	<g>
		<line class="st6" x1="442.7" y1="252.1" x2="442.7" y2="277.8"/>
		<path class="st20" d="M457,245.7c0,8.5-3.1,15.4-14.3,15.4c-10,0-14.3-6.9-14.3-15.4s6.4-20.2,14.3-20.2S457,237.2,457,245.7z"/>
	</g>
	<g>
		<line class="st9" x1="407" y1="257.4" x2="407" y2="277.8"/>
		<path class="st21" d="M421,253c0,6.7-3.1,12.2-14,12.2c-9.8,0-14-5.5-14-12.2c0-6.7,6.3-16,14-16C414.7,237,421,246.3,421,253z"/>
	</g>
	<g>
		<line class="st9" x1="557.7" y1="265.5" x2="557.7" y2="277.8"/>
		<path class="st21" d="M569,262.9c0,4-2.5,7.3-11.3,7.3c-7.9,0-11.3-3.3-11.3-7.3c0-4,5.1-9.6,11.3-9.6S569,258.8,569,262.9z"/>
	</g>
</g>
</svg>
